<svg width="750px" height="300px" viewBox="0 0 750 300" version="1.1" xmlns="http://www.w3.org/2000/svg" xmlns:xlink="http://www.w3.org/1999/xlink">
    <!-- Generator: Sketch 43.1 (39012) - http://www.bohemiancoding.com/sketch -->
    <desc>Created with Sketch.</desc>
    <defs>
        <rect id="path-1" x="0" y="0" width="750" height="300"></rect>
    </defs>
    <g id="Page-1" stroke="none" stroke-width="1" fill="none" fill-rule="evenodd">
        <g id="我的课程" transform="translate(0.000000, -126.000000)">
            <g id="Group-2-+-Group-2-Mask" transform="translate(0.000000, 126.000000)">
                <mask id="mask-2" fill="white">
                    <use xlink:href="#path-1"></use>
                </mask>
                <use id="Mask" fill="#3A3434" xlink:href="#path-1"></use>
                <g id="Group-2" opacity="0.08" mask="url(#mask-2)">
                    <g transform="translate(354.500000, 122.500000) rotate(10.000000) translate(-354.500000, -122.500000) translate(262.000000, -14.000000)">
                        <polygon id="Path-9" stroke="none" fill="#FFFFFF" points="9.25 51.6957447 26.015625 273 158.40625 273 175.171875 51.6957447"></polygon>
                        <polygon id="Path-10" stroke="none" fill="#E0B190" points="6.9375 113.846809 15.609375 194.004255 169.390625 194.585106 177.484375 113.846809"></polygon>
                        <polygon id="Path-9" stroke="none" fill="#D6DDE6" points="9.25 51.6957447 10.40625 62.1510638 174.015625 62.1510638 175.171875 51.6957447"></polygon>
                        <polygon id="Path-9" stroke="none" fill="#D6DDE6" points="19.65625 194.004255 20.8125 203.878723 163.609375 203.878723 164.1875 194.585106"></polygon>
                        <polygon id="Path-8" stroke="#34110B" stroke-width="1" fill="#34110B" points="2.84217094e-14 51.4198501 184.975864 51.6736033 184.975864 23.6054057 176.29837 23.7060212 169.013681 -2.98427949e-13 15.2998262 -2.98427949e-13 8.56730841 23.7060212 2.84217094e-14 23.7060212"></polygon>
                        <rect id="Rectangle-4" stroke="none" fill="#34110B" x="76.890625" y="127.787234" width="31.21875" height="52.2765957" rx="15.609375"></rect>
                        <g id="Group" stroke="none" stroke-width="1" fill="none" transform="translate(84.984375, 138.823404)">
                            <polygon id="Path-11" fill="#E0B190" points="9.2644441 0 9.2644441 18.587234 0 18.587234"></polygon>
                            <polygon id="Path-11" fill="#E0B190" transform="translate(10.413472, 23.234043) rotate(180.000000) translate(-10.413472, -23.234043) " points="15.0456941 13.9404255 15.0456941 32.5276596 5.78125 32.5276596"></polygon>
                        </g>
                    </g>
                </g>
                <g id="Group-2" opacity="0.04" mask="url(#mask-2)">
                    <g transform="translate(475.000000, 239.718750) rotate(-20.000000) translate(-475.000000, -239.718750) translate(450.000000, 203.000000)">
                        <polygon id="Path-9" stroke="none" fill="#FFFFFF" points="2.5 13.90625 7.03125 73.4375 42.8125 73.4375 47.34375 13.90625"></polygon>
                        <polygon id="Path-10" stroke="none" fill="#E0B190" points="1.875 30.625 4.21875 52.1875 45.78125 52.34375 47.96875 30.625"></polygon>
                        <polygon id="Path-9" stroke="none" fill="#D6DDE6" points="2.5 13.90625 2.8125 16.71875 47.03125 16.71875 47.34375 13.90625"></polygon>
                        <polygon id="Path-9" stroke="none" fill="#D6DDE6" points="5.3125 52.1875 5.625 54.84375 44.21875 54.84375 44.375 52.34375"></polygon>
                        <polygon id="Path-8" stroke="#34110B" stroke-width="1" fill="#34110B" points="0 13.8320339 49.9934769 13.9002939 49.9934769 6.34989737 47.648208 6.37696312 45.6793733 0 4.13508816 0 2.31548876 6.37696312 0 6.37696312"></polygon>
                        <rect id="Rectangle-4" stroke="none" fill="#34110B" x="20.78125" y="34.375" width="8.4375" height="14.0625" rx="4.21875"></rect>
                        <g id="Group" stroke="none" stroke-width="1" fill="none" transform="translate(22.968750, 37.343750)">
                            <polygon id="Path-11" fill="#E0B190" points="2.50390381 0 2.50390381 5 0 5"></polygon>
                            <polygon id="Path-11" fill="#E0B190" transform="translate(2.814452, 6.250000) rotate(180.000000) translate(-2.814452, -6.250000) " points="4.06640381 3.75 4.06640381 8.75 1.5625 8.75"></polygon>
                        </g>
                    </g>
                </g>
                <g id="Group-2" opacity="0.04" mask="url(#mask-2)">
                    <g transform="translate(552.500000, 261.359375) rotate(20.000000) translate(-552.500000, -261.359375) translate(540.000000, 243.000000)">
                        <polygon id="Path-9" stroke="none" fill="#FFFFFF" points="1.25 6.953125 3.515625 36.71875 21.40625 36.71875 23.671875 6.953125"></polygon>
                        <polygon id="Path-10" stroke="none" fill="#E0B190" points="0.9375 15.3125 2.109375 26.09375 22.890625 26.171875 23.984375 15.3125"></polygon>
                        <polygon id="Path-9" stroke="none" fill="#D6DDE6" points="1.25 6.953125 1.40625 8.359375 23.515625 8.359375 23.671875 6.953125"></polygon>
                        <polygon id="Path-9" stroke="none" fill="#D6DDE6" points="2.65625 26.09375 2.8125 27.421875 22.109375 27.421875 22.1875 26.171875"></polygon>
                        <polygon id="Path-8" stroke="#34110B" stroke-width="1" fill="#34110B" points="0 6.91601693 24.9967384 6.95014697 24.9967384 3.17494868 23.824104 3.18848156 22.8396867 0 2.06754408 0 1.15774438 3.18848156 0 3.18848156"></polygon>
                        <rect id="Rectangle-4" stroke="none" fill="#34110B" x="10.390625" y="17.1875" width="4.21875" height="7.03125" rx="2.109375"></rect>
                        <g id="Group" stroke="none" stroke-width="1" fill="none" transform="translate(11.484375, 18.671875)">
                            <polygon id="Path-11" fill="#E0B190" points="1.25195191 0 1.25195191 2.5 0 2.5"></polygon>
                            <polygon id="Path-11" fill="#E0B190" transform="translate(1.407226, 3.125000) rotate(180.000000) translate(-1.407226, -3.125000) " points="2.03320191 1.875 2.03320191 4.375 0.78125 4.375"></polygon>
                        </g>
                    </g>
                </g>
                <g id="Group-2" opacity="0.04" mask="url(#mask-2)">
                    <g transform="translate(202.500000, 261.359375) rotate(-20.000000) translate(-202.500000, -261.359375) translate(190.000000, 243.000000)">
                        <polygon id="Path-9" stroke="none" fill="#FFFFFF" points="1.25 6.953125 3.515625 36.71875 21.40625 36.71875 23.671875 6.953125"></polygon>
                        <polygon id="Path-10" stroke="none" fill="#E0B190" points="0.9375 15.3125 2.109375 26.09375 22.890625 26.171875 23.984375 15.3125"></polygon>
                        <polygon id="Path-9" stroke="none" fill="#D6DDE6" points="1.25 6.953125 1.40625 8.359375 23.515625 8.359375 23.671875 6.953125"></polygon>
                        <polygon id="Path-9" stroke="none" fill="#D6DDE6" points="2.65625 26.09375 2.8125 27.421875 22.109375 27.421875 22.1875 26.171875"></polygon>
                        <polygon id="Path-8" stroke="#34110B" stroke-width="1" fill="#34110B" points="0 6.91601693 24.9967384 6.95014697 24.9967384 3.17494868 23.824104 3.18848156 22.8396867 0 2.06754408 0 1.15774438 3.18848156 0 3.18848156"></polygon>
                        <rect id="Rectangle-4" stroke="none" fill="#34110B" x="10.390625" y="17.1875" width="4.21875" height="7.03125" rx="2.109375"></rect>
                        <g id="Group" stroke="none" stroke-width="1" fill="none" transform="translate(11.484375, 18.671875)">
                            <polygon id="Path-11" fill="#E0B190" points="1.25195191 0 1.25195191 2.5 0 2.5"></polygon>
                            <polygon id="Path-11" fill="#E0B190" transform="translate(1.407226, 3.125000) rotate(180.000000) translate(-1.407226, -3.125000) " points="2.03320191 1.875 2.03320191 4.375 0.78125 4.375"></polygon>
                        </g>
                    </g>
                </g>
                <g id="Group-2" opacity="0.04" mask="url(#mask-2)">
                    <g transform="translate(156.903807, 267.483039) rotate(20.000000) translate(-156.903807, -267.483039) translate(147.903807, 253.983039)">
                        <polygon id="Path-9" stroke="none" fill="#FFFFFF" points="0.9 5.00625 2.53125 26.4375 15.4125 26.4375 17.04375 5.00625"></polygon>
                        <polygon id="Path-10" stroke="none" fill="#E0B190" points="0.675 11.025 1.51875 18.7875 16.48125 18.84375 17.26875 11.025"></polygon>
                        <polygon id="Path-9" stroke="none" fill="#D6DDE6" points="0.9 5.00625 1.0125 6.01875 16.93125 6.01875 17.04375 5.00625"></polygon>
                        <polygon id="Path-9" stroke="none" fill="#D6DDE6" points="1.9125 18.7875 2.025 19.74375 15.91875 19.74375 15.975 18.84375"></polygon>
                        <polygon id="Path-8" stroke="#34110B" stroke-width="1" fill="#34110B" points="-1.70530257e-13 4.97953219 17.9976517 5.00410582 17.9976517 2.28596305 17.1533549 2.29570672 16.4445744 -2.27373675e-13 1.48863174 -2.27373675e-13 0.833575953 2.29570672 -1.70530257e-13 2.29570672"></polygon>
                        <rect id="Rectangle-4" stroke="none" fill="#34110B" x="7.48125" y="12.375" width="3.0375" height="5.0625" rx="1.51875"></rect>
                        <g id="Group" stroke="none" stroke-width="1" fill="none" transform="translate(8.268750, 13.443750)">
                            <polygon id="Path-11" fill="#E0B190" points="0.901405372 2.29150032e-13 0.901405372 1.8 1.95399252e-14 1.8"></polygon>
                            <polygon id="Path-11" fill="#E0B190" transform="translate(1.013203, 2.250000) rotate(180.000000) translate(-1.013203, -2.250000) " points="1.46390537 1.35 1.46390537 3.15 0.5625 3.15"></polygon>
                        </g>
                    </g>
                </g>
            </g>
        </g>
    </g>
</svg>